<svg xmlns="http://www.w3.org/2000/svg" xmlns:xlink="http://www.w3.org/1999/xlink" width="500" zoomAndPan="magnify" viewBox="0 0 375 374.999991" height="500" preserveAspectRatio="xMidYMid meet" version="1.0"><defs><g/><clipPath id="6689ab90f6"><path d="M 112.558594 233.078125 L 139 233.078125 L 139 259.542969 L 112.558594 259.542969 Z M 112.558594 233.078125 " clip-rule="nonzero"/></clipPath><clipPath id="e9500a67ea"><path d="M 280.914062 103.707031 L 307.289062 103.707031 L 307.289062 130.203125 L 280.914062 130.203125 Z M 280.914062 103.707031 " clip-rule="nonzero"/></clipPath><clipPath id="dedc32ac61"><path d="M 173 29.296875 L 200 29.296875 L 200 56 L 173 56 Z M 173 29.296875 " clip-rule="nonzero"/></clipPath></defs><g fill="#333333" fill-opacity="1"><g transform="translate(59.343076, 315.717752)"><g><path d="M 0.828125 -25.703125 L 19.4375 -25.703125 L 19.4375 -20.703125 L 12.875 -20.703125 L 12.875 0 L 7.390625 0 L 7.390625 -20.703125 L 0.828125 -20.703125 Z M 0.828125 -25.703125 "/></g></g></g><g fill="#333333" fill-opacity="1"><g transform="translate(81.305091, 315.717752)"><g><path d="M 20.1875 -18.046875 C 20.1875 -17.222656 20.070312 -16.441406 19.84375 -15.703125 C 19.613281 -14.972656 19.289062 -14.300781 18.875 -13.6875 C 18.46875 -13.070312 17.972656 -12.523438 17.390625 -12.046875 C 16.816406 -11.578125 16.191406 -11.195312 15.515625 -10.90625 L 24.03125 0 L 17.625 0 L 9.671875 -10.375 L 7.21875 -10.375 L 7.21875 0 L 1.703125 0 L 1.703125 -25.703125 L 12.796875 -25.703125 C 13.804688 -25.703125 14.765625 -25.5 15.671875 -25.09375 C 16.578125 -24.695312 17.363281 -24.15625 18.03125 -23.46875 C 18.695312 -22.78125 19.222656 -21.96875 19.609375 -21.03125 C 19.992188 -20.101562 20.1875 -19.109375 20.1875 -18.046875 Z M 12.109375 -15.375 C 12.804688 -15.375 13.410156 -15.628906 13.921875 -16.140625 C 14.429688 -16.660156 14.6875 -17.296875 14.6875 -18.046875 C 14.6875 -18.773438 14.429688 -19.398438 13.921875 -19.921875 C 13.410156 -20.441406 12.804688 -20.703125 12.109375 -20.703125 L 7.21875 -20.703125 L 7.21875 -15.375 Z M 12.109375 -15.375 "/></g></g></g><g fill="#333333" fill-opacity="1"><g transform="translate(107.905854, 315.717752)"><g><path d="M 17.515625 -25.703125 L 28.234375 0 L 22.296875 0 L 19.96875 -5.515625 L 9.0625 -5.515625 L 6.78125 0 L 0.796875 0 L 11.53125 -25.703125 Z M 17.90625 -10.515625 L 14.53125 -18.59375 L 11.171875 -10.515625 Z M 17.90625 -10.515625 "/></g></g></g><g fill="#333333" fill-opacity="1"><g transform="translate(138.637995, 315.717752)"><g><path d="M 22.46875 -25.703125 L 28.453125 -25.703125 L 17.625 0 L 11.5625 0 L 0.765625 -25.703125 L 6.75 -25.703125 L 14.609375 -6.484375 Z M 22.46875 -25.703125 "/></g></g></g><g fill="#333333" fill-opacity="1"><g transform="translate(169.551332, 315.717752)"><g><path d="M 1.734375 -25.703125 L 17.796875 -25.703125 L 17.796875 -20.703125 L 7.25 -20.703125 L 7.25 -16.0625 L 16.53125 -16.0625 L 16.53125 -11.0625 L 7.25 -11.0625 L 7.25 -4.96875 L 17.796875 -4.96875 L 17.796875 0 L 1.734375 0 Z M 1.734375 -25.703125 "/></g></g></g><g fill="#333333" fill-opacity="1"><g transform="translate(190.788532, 315.717752)"><g><path d="M 7.21875 -4.96875 L 17.765625 -4.96875 L 17.765625 0 L 1.703125 0 L 1.703125 -25.703125 L 7.21875 -25.703125 Z M 7.21875 -4.96875 "/></g></g></g><g fill="#333333" fill-opacity="1"><g transform="translate(210.612373, 315.717752)"><g><path d="M 24.21875 -25.703125 L 29.40625 -25.703125 L 29.40625 0 L 23.921875 0 L 23.921875 -16.96875 L 17.796875 -8.375 L 13.40625 -8.375 L 7.21875 -16.71875 L 7.21875 0 L 1.703125 0 L 1.703125 -25.703125 L 6.921875 -25.703125 L 15.625 -13.84375 Z M 24.21875 -25.703125 "/></g></g></g><g fill="#333333" fill-opacity="1"><g transform="translate(243.410208, 315.717752)"><g><path d="M 17.515625 -25.703125 L 28.234375 0 L 22.296875 0 L 19.96875 -5.515625 L 9.0625 -5.515625 L 6.78125 0 L 0.796875 0 L 11.53125 -25.703125 Z M 17.90625 -10.515625 L 14.53125 -18.59375 L 11.171875 -10.515625 Z M 17.90625 -10.515625 "/></g></g></g><g fill="#333333" fill-opacity="1"><g transform="translate(274.142342, 315.717752)"><g><path d="M 0.828125 -25.703125 L 19.4375 -25.703125 L 19.4375 -20.703125 L 12.875 -20.703125 L 12.875 0 L 7.390625 0 L 7.390625 -20.703125 L 0.828125 -20.703125 Z M 0.828125 -25.703125 "/></g></g></g><g fill="#333333" fill-opacity="1"><g transform="translate(296.104354, 315.717752)"><g><path d="M 1.734375 -25.703125 L 17.796875 -25.703125 L 17.796875 -20.703125 L 7.25 -20.703125 L 7.25 -16.0625 L 16.53125 -16.0625 L 16.53125 -11.0625 L 7.25 -11.0625 L 7.25 -4.96875 L 17.796875 -4.96875 L 17.796875 0 L 1.734375 0 Z M 1.734375 -25.703125 "/></g></g></g><g fill="#333333" fill-opacity="1"><g transform="translate(48.491319, 341.488906)"><g><path d="M 1.734375 0 L 0.171875 0 L 0.171875 -2.0625 L 1.734375 -2.0625 C 2.140625 -2.0625 2.445312 -2.15625 2.65625 -2.34375 C 2.875 -2.539062 2.984375 -2.859375 2.984375 -3.296875 L 2.984375 -12.234375 L 5.296875 -12.234375 L 5.296875 -3.265625 C 5.296875 -2.472656 5.179688 -1.835938 4.953125 -1.359375 C 4.722656 -0.878906 4.347656 -0.53125 3.828125 -0.3125 C 3.316406 -0.101562 2.617188 0 1.734375 0 Z M 1.734375 0 "/></g></g></g><g fill="#333333" fill-opacity="1"><g transform="translate(62.500693, 341.488906)"><g><path d="M 6.5625 0.21875 C 5.550781 0.21875 4.671875 0.0507812 3.921875 -0.28125 C 3.179688 -0.625 2.566406 -1.085938 2.078125 -1.671875 C 1.585938 -2.265625 1.222656 -2.941406 0.984375 -3.703125 C 0.742188 -4.472656 0.625 -5.28125 0.625 -6.125 C 0.625 -6.96875 0.742188 -7.769531 0.984375 -8.53125 C 1.222656 -9.300781 1.585938 -9.976562 2.078125 -10.5625 C 2.566406 -11.15625 3.179688 -11.617188 3.921875 -11.953125 C 4.671875 -12.285156 5.550781 -12.453125 6.5625 -12.453125 C 7.570312 -12.453125 8.453125 -12.285156 9.203125 -11.953125 C 9.953125 -11.617188 10.566406 -11.15625 11.046875 -10.5625 C 11.535156 -9.976562 11.898438 -9.300781 12.140625 -8.53125 C 12.378906 -7.769531 12.5 -6.96875 12.5 -6.125 C 12.5 -5.28125 12.378906 -4.472656 12.140625 -3.703125 C 11.898438 -2.941406 11.535156 -2.265625 11.046875 -1.671875 C 10.566406 -1.085938 9.953125 -0.625 9.203125 -0.28125 C 8.453125 0.0507812 7.570312 0.21875 6.5625 0.21875 Z M 6.5625 -1.84375 C 7.3125 -1.84375 7.945312 -2.019531 8.46875 -2.375 C 9 -2.738281 9.398438 -3.242188 9.671875 -3.890625 C 9.953125 -4.535156 10.09375 -5.28125 10.09375 -6.125 C 10.09375 -6.96875 9.953125 -7.707031 9.671875 -8.34375 C 9.398438 -8.976562 9 -9.472656 8.46875 -9.828125 C 7.945312 -10.191406 7.3125 -10.375 6.5625 -10.375 C 5.820312 -10.375 5.1875 -10.191406 4.65625 -9.828125 C 4.125 -9.472656 3.71875 -8.976562 3.4375 -8.34375 C 3.164062 -7.707031 3.03125 -6.96875 3.03125 -6.125 C 3.03125 -5.28125 3.164062 -4.535156 3.4375 -3.890625 C 3.71875 -3.242188 4.125 -2.738281 4.65625 -2.375 C 5.1875 -2.019531 5.820312 -1.84375 6.5625 -1.84375 Z M 6.5625 -1.84375 "/></g></g></g><g fill="#333333" fill-opacity="1"><g transform="translate(83.335586, 341.488906)"><g><path d="M 5.90625 0.21875 C 4.738281 0.21875 3.789062 0.0234375 3.0625 -0.359375 C 2.332031 -0.753906 1.800781 -1.300781 1.46875 -2 C 1.132812 -2.707031 0.96875 -3.519531 0.96875 -4.4375 L 0.96875 -12.234375 L 3.28125 -12.234375 L 3.28125 -4.4375 C 3.28125 -3.9375 3.359375 -3.488281 3.515625 -3.09375 C 3.679688 -2.695312 3.957031 -2.390625 4.34375 -2.171875 C 4.726562 -1.953125 5.25 -1.84375 5.90625 -1.84375 C 6.5625 -1.84375 7.078125 -1.953125 7.453125 -2.171875 C 7.835938 -2.390625 8.109375 -2.695312 8.265625 -3.09375 C 8.429688 -3.488281 8.515625 -3.9375 8.515625 -4.4375 L 8.515625 -12.234375 L 10.84375 -12.234375 L 10.84375 -4.4375 C 10.84375 -3.519531 10.671875 -2.707031 10.328125 -2 C 9.992188 -1.300781 9.460938 -0.753906 8.734375 -0.359375 C 8.003906 0.0234375 7.0625 0.21875 5.90625 0.21875 Z M 5.90625 0.21875 "/></g></g></g><g fill="#333333" fill-opacity="1"><g transform="translate(102.840629, 341.488906)"><g><path d="M 8.3125 -5.3125 L 10.515625 0 L 8.0625 0 L 6.125 -4.890625 L 3.40625 -4.890625 L 3.40625 0 L 1.09375 0 L 1.09375 -12.234375 L 6.359375 -12.234375 C 7.128906 -12.234375 7.804688 -12.109375 8.390625 -11.859375 C 8.972656 -11.609375 9.425781 -11.21875 9.75 -10.6875 C 10.082031 -10.15625 10.25 -9.46875 10.25 -8.625 C 10.25 -7.820312 10.078125 -7.132812 9.734375 -6.5625 C 9.390625 -6 8.914062 -5.582031 8.3125 -5.3125 Z M 6.046875 -10.15625 L 3.40625 -10.15625 L 3.40625 -6.90625 L 6.046875 -6.90625 C 6.660156 -6.90625 7.128906 -7.046875 7.453125 -7.328125 C 7.785156 -7.609375 7.953125 -8.015625 7.953125 -8.546875 C 7.953125 -9.066406 7.785156 -9.460938 7.453125 -9.734375 C 7.117188 -10.015625 6.648438 -10.15625 6.046875 -10.15625 Z M 6.046875 -10.15625 "/></g></g></g><g fill="#333333" fill-opacity="1"><g transform="translate(121.576589, 341.488906)"><g><path d="M 3.40625 0 L 1.09375 0 L 1.09375 -12.234375 L 3.6875 -12.234375 L 8.703125 -3.484375 L 8.703125 -12.234375 L 11.015625 -12.234375 L 11.015625 0 L 8.40625 0 L 3.40625 -8.765625 Z M 3.40625 0 "/></g></g></g><g fill="#333333" fill-opacity="1"><g transform="translate(141.370026, 341.488906)"><g><path d="M 9.25 0 L 1.09375 0 L 1.09375 -12.234375 L 9.25 -12.234375 L 9.25 -10.15625 L 3.40625 -10.15625 L 3.40625 -7.15625 L 8.640625 -7.15625 L 8.640625 -5.09375 L 3.40625 -5.09375 L 3.40625 -2.0625 L 9.25 -2.0625 Z M 9.25 0 "/></g></g></g><g fill="#333333" fill-opacity="1"><g transform="translate(159.016471, 341.488906)"><g><path d="M 6.828125 0 L 4.40625 0 L 4.40625 -4.796875 L -0.046875 -12.234375 L 2.640625 -12.234375 L 5.609375 -7.03125 L 8.59375 -12.234375 L 11.265625 -12.234375 L 6.828125 -4.796875 Z M 6.828125 0 "/></g></g></g><g fill="#333333" fill-opacity="1"><g transform="translate(177.928685, 341.488906)"><g/></g></g><g fill="#333333" fill-opacity="1"><g transform="translate(189.919246, 341.488906)"><g><path d="M 6.203125 0 L 3.890625 0 L 3.890625 -10.15625 L 0.15625 -10.15625 L 0.15625 -12.234375 L 9.921875 -12.234375 L 9.921875 -10.15625 L 6.203125 -10.15625 Z M 6.203125 0 "/></g></g></g><g fill="#333333" fill-opacity="1"><g transform="translate(207.709896, 341.488906)"><g><path d="M 6.5625 0.21875 C 5.550781 0.21875 4.671875 0.0507812 3.921875 -0.28125 C 3.179688 -0.625 2.566406 -1.085938 2.078125 -1.671875 C 1.585938 -2.265625 1.222656 -2.941406 0.984375 -3.703125 C 0.742188 -4.472656 0.625 -5.28125 0.625 -6.125 C 0.625 -6.96875 0.742188 -7.769531 0.984375 -8.53125 C 1.222656 -9.300781 1.585938 -9.976562 2.078125 -10.5625 C 2.566406 -11.15625 3.179688 -11.617188 3.921875 -11.953125 C 4.671875 -12.285156 5.550781 -12.453125 6.5625 -12.453125 C 7.570312 -12.453125 8.453125 -12.285156 9.203125 -11.953125 C 9.953125 -11.617188 10.566406 -11.15625 11.046875 -10.5625 C 11.535156 -9.976562 11.898438 -9.300781 12.140625 -8.53125 C 12.378906 -7.769531 12.5 -6.96875 12.5 -6.125 C 12.5 -5.28125 12.378906 -4.472656 12.140625 -3.703125 C 11.898438 -2.941406 11.535156 -2.265625 11.046875 -1.671875 C 10.566406 -1.085938 9.953125 -0.625 9.203125 -0.28125 C 8.453125 0.0507812 7.570312 0.21875 6.5625 0.21875 Z M 6.5625 -1.84375 C 7.3125 -1.84375 7.945312 -2.019531 8.46875 -2.375 C 9 -2.738281 9.398438 -3.242188 9.671875 -3.890625 C 9.953125 -4.535156 10.09375 -5.28125 10.09375 -6.125 C 10.09375 -6.96875 9.953125 -7.707031 9.671875 -8.34375 C 9.398438 -8.976562 9 -9.472656 8.46875 -9.828125 C 7.945312 -10.191406 7.3125 -10.375 6.5625 -10.375 C 5.820312 -10.375 5.1875 -10.191406 4.65625 -9.828125 C 4.125 -9.472656 3.71875 -8.976562 3.4375 -8.34375 C 3.164062 -7.707031 3.03125 -6.96875 3.03125 -6.125 C 3.03125 -5.28125 3.164062 -4.535156 3.4375 -3.890625 C 3.71875 -3.242188 4.125 -2.738281 4.65625 -2.375 C 5.1875 -2.019531 5.820312 -1.84375 6.5625 -1.84375 Z M 6.5625 -1.84375 "/></g></g></g><g fill="#333333" fill-opacity="1"><g transform="translate(228.544786, 341.488906)"><g><path d="M 6.59375 0.21875 C 5.5625 0.21875 4.671875 0.0507812 3.921875 -0.28125 C 3.179688 -0.625 2.5625 -1.09375 2.0625 -1.6875 C 1.570312 -2.289062 1.207031 -2.972656 0.96875 -3.734375 C 0.738281 -4.492188 0.625 -5.289062 0.625 -6.125 C 0.625 -6.957031 0.738281 -7.753906 0.96875 -8.515625 C 1.207031 -9.273438 1.570312 -9.953125 2.0625 -10.546875 C 2.5625 -11.140625 3.179688 -11.601562 3.921875 -11.9375 C 4.671875 -12.28125 5.5625 -12.453125 6.59375 -12.453125 C 8.175781 -12.453125 9.429688 -12.078125 10.359375 -11.328125 C 11.296875 -10.585938 11.890625 -9.613281 12.140625 -8.40625 L 9.609375 -8.40625 C 9.398438 -9.03125 9.046875 -9.515625 8.546875 -9.859375 C 8.046875 -10.210938 7.390625 -10.390625 6.578125 -10.390625 C 5.796875 -10.390625 5.140625 -10.203125 4.609375 -9.828125 C 4.085938 -9.453125 3.691406 -8.941406 3.421875 -8.296875 C 3.160156 -7.660156 3.03125 -6.941406 3.03125 -6.140625 C 3.03125 -5.316406 3.164062 -4.582031 3.4375 -3.9375 C 3.71875 -3.289062 4.132812 -2.78125 4.6875 -2.40625 C 5.25 -2.03125 5.945312 -1.84375 6.78125 -1.84375 C 7.738281 -1.84375 8.5 -2.082031 9.0625 -2.5625 C 9.632812 -3.050781 9.929688 -3.78125 9.953125 -4.75 L 7.25 -4.75 L 7.25 -6.65625 L 12.25 -6.65625 L 12.25 0 L 10.140625 0 L 10.140625 -1.375 C 9.710938 -0.769531 9.175781 -0.351562 8.53125 -0.125 C 7.882812 0.101562 7.238281 0.21875 6.59375 0.21875 Z M 6.59375 0.21875 "/></g></g></g><g fill="#333333" fill-opacity="1"><g transform="translate(249.363664, 341.488906)"><g><path d="M 9.25 0 L 1.09375 0 L 1.09375 -12.234375 L 9.25 -12.234375 L 9.25 -10.15625 L 3.40625 -10.15625 L 3.40625 -7.15625 L 8.640625 -7.15625 L 8.640625 -5.09375 L 3.40625 -5.09375 L 3.40625 -2.0625 L 9.25 -2.0625 Z M 9.25 0 "/></g></g></g><g fill="#333333" fill-opacity="1"><g transform="translate(267.010109, 341.488906)"><g><path d="M 6.203125 0 L 3.890625 0 L 3.890625 -10.15625 L 0.15625 -10.15625 L 0.15625 -12.234375 L 9.921875 -12.234375 L 9.921875 -10.15625 L 6.203125 -10.15625 Z M 6.203125 0 "/></g></g></g><g fill="#333333" fill-opacity="1"><g transform="translate(284.800771, 341.488906)"><g><path d="M 3.40625 0 L 1.09375 0 L 1.09375 -12.234375 L 3.40625 -12.234375 L 3.40625 -7.171875 L 8.640625 -7.171875 L 8.640625 -12.234375 L 10.953125 -12.234375 L 10.953125 0 L 8.640625 0 L 8.640625 -5.09375 L 3.40625 -5.09375 Z M 3.40625 0 "/></g></g></g><g fill="#333333" fill-opacity="1"><g transform="translate(304.546147, 341.488906)"><g><path d="M 9.25 0 L 1.09375 0 L 1.09375 -12.234375 L 9.25 -12.234375 L 9.25 -10.15625 L 3.40625 -10.15625 L 3.40625 -7.15625 L 8.640625 -7.15625 L 8.640625 -5.09375 L 3.40625 -5.09375 L 3.40625 -2.0625 L 9.25 -2.0625 Z M 9.25 0 "/></g></g></g><g fill="#333333" fill-opacity="1"><g transform="translate(322.199741, 341.488906)"><g/></g></g><path fill="#80cc28" d="M 97.574219 119.144531 C 104.242188 124.457031 109.910156 133.007812 109.910156 133.007812 C 104.320312 132.03125 96.601562 133.511719 92.058594 134.609375 C 91.046875 139.429688 90.695312 144.226562 91.050781 148.972656 C 93.085938 176.320312 133.628906 165.386719 133.628906 165.386719 C 120.246094 163.648438 114.375 158.347656 112.011719 155.207031 C 111.300781 154.253906 112.046875 152.894531 113.230469 153 C 139.238281 155.308594 162.222656 167.078125 162.222656 167.078125 C 159.761719 145.03125 149.378906 132.667969 139.964844 125.878906 C 128.90625 117.898438 126.207031 102.582031 133.527344 91.0625 C 141.472656 78.566406 151.023438 67.113281 151.023438 67.113281 C 124.601562 83.445312 106.578125 101.253906 97.574219 119.144531 " fill-opacity="1" fill-rule="nonzero"/><path fill="#80cc28" d="M 94.679688 126.519531 C 96.925781 119.585938 93.140625 112.140625 86.230469 109.886719 C 79.316406 107.632812 71.890625 111.429688 69.644531 118.363281 C 67.398438 125.292969 71.179688 132.742188 78.09375 134.996094 C 85.007812 137.246094 92.433594 133.453125 94.679688 126.519531 " fill-opacity="1" fill-rule="nonzero"/><path fill="#ed1c24" d="M 127.472656 230.621094 C 134.574219 225.90625 144.433594 223.144531 144.433594 223.144531 C 141.78125 228.175781 140.796875 235.988281 140.433594 240.664062 C 144.695312 243.117188 149.136719 244.933594 153.746094 246.0625 C 180.308594 252.570312 182.46875 210.527344 182.46875 210.527344 C 176.6875 222.75 169.84375 226.710938 166.132812 227.996094 C 165.011719 228.382812 163.953125 227.25 164.417969 226.15625 C 174.644531 202.0625 192.910156 183.777344 192.910156 183.777344 C 171.242188 179.3125 156.308594 185.394531 146.957031 192.273438 C 135.976562 200.355469 120.613281 198.195312 111.953125 187.65625 C 102.558594 176.21875 94.644531 163.566406 94.644531 163.566406 C 101.96875 193.816406 113.289062 216.507812 127.472656 230.621094 " fill-opacity="1" fill-rule="nonzero"/><g clip-path="url(#6689ab90f6)"><path fill="#ed1c24" d="M 133.574219 235.664062 C 127.691406 231.378906 119.460938 232.6875 115.1875 238.582031 C 110.914062 244.480469 112.21875 252.734375 118.101562 257.019531 C 123.980469 261.304688 132.210938 260 136.484375 254.101562 C 140.757812 248.203125 139.453125 239.949219 133.574219 235.664062 " fill-opacity="1" fill-rule="nonzero"/></g><path fill="#2c3892" d="M 242.433594 236.554688 C 240.15625 228.328125 240.582031 218.070312 240.582031 218.070312 C 244.53125 222.15625 251.640625 225.507812 255.960938 227.296875 C 259.605469 223.992188 262.699219 220.316406 265.195312 216.269531 C 279.578125 192.945312 240.371094 177.890625 240.371094 177.890625 C 250.175781 187.183594 251.820312 194.9375 251.890625 198.871094 C 251.910156 200.0625 250.507812 200.722656 249.613281 199.941406 C 229.925781 182.738281 218.230469 159.667969 218.230469 159.667969 C 207.296875 178.957031 208.453125 195.078125 212.085938 206.121094 C 216.355469 219.09375 209.5625 233.078125 196.890625 238.078125 C 183.140625 243.507812 168.695312 247.144531 168.695312 247.144531 C 199.648438 249.507812 224.667969 245.722656 242.433594 236.554688 " fill-opacity="1" fill-rule="nonzero"/><path fill="#2c3892" d="M 249.097656 232.296875 C 243.21875 236.582031 241.914062 244.835938 246.1875 250.734375 C 250.460938 256.628906 258.691406 257.9375 264.574219 253.652344 C 270.453125 249.367188 271.757812 241.113281 267.484375 235.214844 C 263.210938 229.316406 254.980469 228.011719 249.097656 232.296875 " fill-opacity="1" fill-rule="nonzero"/><path fill="#f68712" d="M 283.585938 128.742188 C 275.078125 128.375 265.480469 124.796875 265.480469 124.796875 C 270.578125 122.292969 275.953125 116.546875 278.984375 112.980469 C 276.976562 108.484375 274.449219 104.398438 271.378906 100.765625 C 253.703125 79.839844 227.3125 112.582031 227.3125 112.582031 C 239.15625 106.101562 247.015625 106.929688 250.769531 108.082031 C 251.902344 108.425781 252.097656 109.96875 251.078125 110.582031 C 228.683594 124.042969 203.1875 128.070312 203.1875 128.070312 C 218.101562 144.457031 233.75 148.335938 245.347656 148.28125 C 258.964844 148.21875 270.128906 159.019531 270.957031 172.652344 C 271.855469 187.445312 270.839844 202.34375 270.839844 202.34375 C 282.644531 173.554688 286.789062 148.523438 283.585938 128.742188 " fill-opacity="1" fill-rule="nonzero"/><g clip-path="url(#e9500a67ea)"><path fill="#f68712" d="M 281.605469 121.070312 C 283.851562 128.003906 291.277344 131.796875 298.191406 129.542969 C 305.105469 127.292969 308.886719 119.84375 306.640625 112.910156 C 304.394531 105.976562 296.96875 102.183594 290.054688 104.4375 C 283.144531 106.691406 279.359375 114.136719 281.605469 121.070312 " fill-opacity="1" fill-rule="nonzero"/></g><path fill="#00adef" d="M 194.058594 56.179688 C 191.078125 64.179688 184.722656 72.226562 184.722656 72.226562 C 183.917969 66.59375 180.132812 59.691406 177.6875 55.695312 C 172.804688 56.222656 168.144531 57.371094 163.753906 59.175781 C 138.449219 69.566406 161.34375 104.855469 161.34375 104.855469 C 158.855469 91.558594 162.070312 84.316406 164.320312 81.09375 C 165 80.117188 166.523438 80.410156 166.789062 81.570312 C 172.632812 107.089844 168.574219 132.648438 168.574219 132.648438 C 188.722656 123.488281 197.238281 109.765625 200.773438 98.6875 C 204.917969 85.679688 218.613281 78.371094 231.796875 81.792969 C 246.101562 85.507812 259.917969 91.078125 259.917969 91.078125 C 236.265625 70.921875 213.804688 59.238281 194.058594 56.179688 " fill-opacity="1" fill-rule="nonzero"/><g clip-path="url(#dedc32ac61)"><path fill="#00adef" d="M 186.167969 55.695312 C 193.4375 55.695312 199.332031 49.785156 199.332031 42.496094 C 199.332031 35.207031 193.4375 29.296875 186.167969 29.296875 C 178.898438 29.296875 173.003906 35.207031 173.003906 42.496094 C 173.003906 49.785156 178.898438 55.695312 186.167969 55.695312 " fill-opacity="1" fill-rule="nonzero"/></g></svg>